<svg id="visual" viewBox="0 0 900 600" width="900" height="600" xmlns="http://www.w3.org/2000/svg" xmlns:xlink="http://www.w3.org/1999/xlink" version="1.1"><path d="M0 133L13.7 157C27.3 181 54.7 229 82 226C109.3 223 136.7 169 163.8 149C191 129 218 143 245.2 163C272.3 183 299.7 209 327 208C354.3 207 381.7 179 409 162C436.3 145 463.7 139 491 144C518.3 149 545.7 165 573 166C600.3 167 627.7 153 654.8 151C682 149 709 159 736.2 175C763.3 191 790.7 213 818 214C845.3 215 872.7 195 886.3 185L900 175L900 0L886.3 0C872.7 0 845.3 0 818 0C790.7 0 763.3 0 736.2 0C709 0 682 0 654.8 0C627.7 0 600.3 0 573 0C545.7 0 518.3 0 491 0C463.7 0 436.3 0 409 0C381.7 0 354.3 0 327 0C299.7 0 272.3 0 245.2 0C218 0 191 0 163.8 0C136.7 0 109.3 0 82 0C54.7 0 27.3 0 13.7 0L0 0Z" fill="#9e90fa"></path><path d="M0 241L13.7 257C27.3 273 54.7 305 82 296C109.3 287 136.7 237 163.8 221C191 205 218 223 245.2 242C272.3 261 299.7 281 327 282C354.3 283 381.7 265 409 244C436.3 223 463.7 199 491 202C518.3 205 545.7 235 573 236C600.3 237 627.7 209 654.8 213C682 217 709 253 736.2 282C763.3 311 790.7 333 818 325C845.3 317 872.7 279 886.3 260L900 241L900 173L886.3 183C872.7 193 845.3 213 818 212C790.7 211 763.3 189 736.2 173C709 157 682 147 654.8 149C627.7 151 600.3 165 573 164C545.7 163 518.3 147 491 142C463.7 137 436.3 143 409 160C381.7 177 354.3 205 327 206C299.7 207 272.3 181 245.2 161C218 141 191 127 163.8 147C136.7 167 109.3 221 82 224C54.7 227 27.3 179 13.7 155L0 131Z" fill="#8877f6"></path><path d="M0 301L13.7 319C27.3 337 54.7 373 82 364C109.3 355 136.7 301 163.8 281C191 261 218 275 245.2 300C272.3 325 299.7 361 327 364C354.3 367 381.7 337 409 317C436.3 297 463.7 287 491 294C518.3 301 545.7 325 573 326C600.3 327 627.7 305 654.8 308C682 311 709 339 736.2 361C763.3 383 790.7 399 818 389C845.3 379 872.7 343 886.3 325L900 307L900 239L886.3 258C872.7 277 845.3 315 818 323C790.7 331 763.3 309 736.2 280C709 251 682 215 654.8 211C627.7 207 600.3 235 573 234C545.7 233 518.3 203 491 200C463.7 197 436.3 221 409 242C381.7 263 354.3 281 327 280C299.7 279 272.3 259 245.2 240C218 221 191 203 163.8 219C136.7 235 109.3 285 82 294C54.7 303 27.3 271 13.7 255L0 239Z" fill="#715df2"></path><path d="M0 391L13.7 404C27.3 417 54.7 443 82 437C109.3 431 136.7 393 163.8 378C191 363 218 371 245.2 393C272.3 415 299.7 451 327 451C354.3 451 381.7 415 409 398C436.3 381 463.7 383 491 387C518.3 391 545.7 397 573 398C600.3 399 627.7 395 654.8 407C682 419 709 447 736.2 459C763.3 471 790.7 467 818 450C845.3 433 872.7 403 886.3 388L900 373L900 305L886.3 323C872.7 341 845.3 377 818 387C790.7 397 763.3 381 736.2 359C709 337 682 309 654.8 306C627.7 303 600.3 325 573 324C545.7 323 518.3 299 491 292C463.7 285 436.3 295 409 315C381.7 335 354.3 365 327 362C299.7 359 272.3 323 245.2 298C218 273 191 259 163.8 279C136.7 299 109.3 353 82 362C54.7 371 27.3 335 13.7 317L0 299Z" fill="#614dd5"></path><path d="M0 601L13.7 601C27.3 601 54.7 601 82 601C109.3 601 136.7 601 163.8 601C191 601 218 601 245.2 601C272.3 601 299.7 601 327 601C354.3 601 381.7 601 409 601C436.3 601 463.7 601 491 601C518.3 601 545.7 601 573 601C600.3 601 627.7 601 654.8 601C682 601 709 601 736.2 601C763.3 601 790.7 601 818 601C845.3 601 872.7 601 886.3 601L900 601L900 371L886.3 386C872.7 401 845.3 431 818 448C790.7 465 763.3 469 736.2 457C709 445 682 417 654.8 405C627.7 393 600.3 397 573 396C545.7 395 518.3 389 491 385C463.7 381 436.3 379 409 396C381.7 413 354.3 449 327 449C299.7 449 272.3 413 245.2 391C218 369 191 361 163.8 376C136.7 391 109.3 429 82 435C54.7 441 27.3 415 13.7 402L0 389Z" fill="#513eb8"></path></svg>